<?xml version="1.0" encoding="UTF-8" standalone="no"?>
<svg
   sodipodi:docname="discord.svg"
   id="svg545"
   viewBox="0 0 16.933 16.933"
   version="1.1"
   height="64"
   width="64"
   xmlns:inkscape="http://www.inkscape.org/namespaces/inkscape"
   xmlns:sodipodi="http://sodipodi.sourceforge.net/DTD/sodipodi-0.dtd"
   xmlns="http://www.w3.org/2000/svg"
   xmlns:svg="http://www.w3.org/2000/svg">
  <defs
     id="defs549" />
  <sodipodi:namedview
     id="namedview547"
     pagecolor="#ffffff"
     bordercolor="#000000"
     borderopacity="0.25"
     inkscape:showpageshadow="2"
     inkscape:pageopacity="0.0"
     inkscape:pagecheckerboard="0"
     inkscape:deskcolor="#d1d1d1"
     showgrid="false"
     inkscape:zoom="13.5625"
     inkscape:cx="32"
     inkscape:cy="32.110599"
     inkscape:window-width="1906"
     inkscape:window-height="1037"
     inkscape:window-x="5"
     inkscape:window-y="34"
     inkscape:window-maximized="1"
     inkscape:current-layer="svg545" />
  <circle
     cx="8.4665003"
     cy="8.4665003"
     r="7.1436"
     fill="#867de0"
     style="fill:#8b8b8b;paint-order:stroke fill markers"
     id="circle539" />
  <g
     transform="matrix(2.2415,0,0,2.2415,3.7221,-652.3)"
     fill="#fff"
     stroke-width="0.44648"
     id="g543"
     style="fill:#ffffff">
    <path
       d="m 1.5689,293.37 c -0.052606,2.2e-4 -0.4878,0.0126 -0.94691,0.35371 0,0 -0.48972,0.88082 -0.48972,1.9657 0,0 0.28566,0.48973 1.0372,0.51353 0,0 0.12583,-0.14963 0.22785,-0.27887 -0.4319,-0.12923 -0.59514,-0.39788 -0.59514,-0.39788 0,0 0.034015,0.0238 0.09523,0.0578 0.003403,0 0.006787,0.004 0.013593,0.007 0.010203,0.007 0.020408,0.0102 0.03061,0.017 0.08502,0.0476 0.17004,0.085 0.24826,0.11563 0.13943,0.0579 0.30608,0.10883 0.49992,0.14623 0.25506,0.0476 0.55433,0.0646 0.88081,0.004 0.15984,-0.0306 0.32309,-0.0748 0.49313,-0.14623 0.11903,-0.0442 0.25166,-0.10882 0.39109,-0.20064 0,0 -0.17004,0.27546 -0.61554,0.4013 0.10202,0.12583 0.22446,0.27205 0.22446,0.27205 0.75158,-0.0238 1.0372,-0.51353 1.0372,-0.51013 0,-1.0849 -0.48972,-1.9657 -0.48972,-1.9657 -0.48632,-0.36388 -0.95224,-0.35368 -0.95224,-0.35368 l -0.047602,0.0544 c 0.57814,0.17343 0.8468,0.42851 0.8468,0.42851 -0.35369,-0.19044 -0.70056,-0.28568 -1.0236,-0.32309 -0.24486,-0.0272 -0.47952,-0.0204 -0.68697,0.007 -0.020405,0 -0.037404,0.004 -0.05781,0.007 -0.11903,0.0136 -0.4081,0.0544 -0.77198,0.21425 -0.12583,0.0544 -0.20065,0.0952 -0.20065,0.0952 0,0 0.27887,-0.26868 0.89101,-0.44211 l -0.034009,-0.0408 c 0,0 -0.0018,-3e-5 -0.00531,-2e-5 z m -0.086511,1.2549 c 0.19385,0 0.35029,0.16664 0.34689,0.37409 0,0.20745 -0.15304,0.37409 -0.34689,0.37409 -0.19045,0 -0.34689,-0.16664 -0.34689,-0.37409 0,-0.20745 0.15304,-0.37409 0.34689,-0.37409 z m 1.2413,0 c 0.19045,0 0.34689,0.16664 0.34689,0.37409 0,0.20745 -0.15304,0.37409 -0.34689,0.37409 -0.19045,0 -0.34689,-0.16664 -0.34689,-0.37409 0,-0.20745 0.15304,-0.37409 0.34689,-0.37409 z"
       fill="#fff"
       stroke-width="0.44648"
       id="path541"
       style="fill:#ffffff" />
  </g>
</svg>
