<?xml version="1.0" encoding="UTF-8" standalone="no"?>
<svg
   width="64"
   height="64"
   version="1.1"
   viewBox="0 0 16.933 16.933"
   id="svg671"
   sodipodi:docname="files.svg"
   xmlns:inkscape="http://www.inkscape.org/namespaces/inkscape"
   xmlns:sodipodi="http://sodipodi.sourceforge.net/DTD/sodipodi-0.dtd"
   xmlns:xlink="http://www.w3.org/1999/xlink"
   xmlns="http://www.w3.org/2000/svg"
   xmlns:svg="http://www.w3.org/2000/svg">
  <sodipodi:namedview
     id="namedview673"
     pagecolor="#ffffff"
     bordercolor="#000000"
     borderopacity="0.25"
     inkscape:showpageshadow="2"
     inkscape:pageopacity="0.0"
     inkscape:pagecheckerboard="0"
     inkscape:deskcolor="#d1d1d1"
     showgrid="false"
     inkscape:zoom="13.5625"
     inkscape:cx="31.963134"
     inkscape:cy="32.110599"
     inkscape:window-width="951"
     inkscape:window-height="1037"
     inkscape:window-x="5"
     inkscape:window-y="34"
     inkscape:window-maximized="1"
     inkscape:current-layer="svg671" />
  <defs
     id="defs657">
    <linearGradient
       id="b">
      <stop
         offset="0"
         id="stop650" />
      <stop
         stop-opacity="0"
         offset="1"
         id="stop652" />
    </linearGradient>
    <linearGradient
       id="c"
       x1="32"
       x2="32"
       y1="13"
       y2="9"
       gradientTransform="scale(0.26458)"
       gradientUnits="userSpaceOnUse"
       xlink:href="#b" />
    <linearGradient
       id="a"
       x1="30"
       x2="57"
       y1="44"
       y2="44"
       gradientUnits="userSpaceOnUse"
       xlink:href="#linearGradient5205"
       gradientTransform="scale(0.26458)" />
    <linearGradient
       id="linearGradient5205">
      <stop
         offset="0"
         id="stop744" />
      <stop
         stop-opacity="0"
         offset="1"
         id="stop746" />
    </linearGradient>
  </defs>
  <circle
     cx="8.4665003"
     cy="8.4665003"
     r="6.6145"
     fill="#3578c7"
     style="fill:#6d6d6d;paint-order:stroke markers fill"
     id="circle659" />
  <path
     d="M 5.1323228,3.70412 A 5.82076,5.82076 0 0 0 2.6456942,8.46656 5.82076,5.82076 0 0 0 8.4664542,14.28732 5.82076,5.82076 0 0 0 14.287214,8.46656 5.82076,5.82076 0 0 0 11.807809,3.70412 Z"
     fill="#fff"
     stroke-width="1.00001"
     style="fill:#ffffff;paint-order:stroke markers fill"
     id="path661" />
  <path
     d="M 8.4665,1.852 A 6.6145,6.6145 0 0 0 4.5221,3.1749 h 7.8976 A 6.6145,6.6145 0 0 0 8.4665,1.852 Z"
     fill="url(#c)"
     opacity="0.15"
     style="fill:url(#c);paint-order:stroke markers fill"
     id="path663" />
  <path
     d="M 8.466,4.2332 C 8.17389,4.2338879 8.08466,4.50919 7.93684,4.76287 l -0.30799,0.52812 -5.5525,5.167e-4 a 7.1436,7.1436 0 0 0 -0.75343,3.1749 7.1436,7.1436 0 0 0 7.1436,7.1436003 7.1436,7.1436 0 0 0 7.1436,-7.1436003 7.1436,7.1436 0 0 0 -1.3999,-4.2332 h -5.7432 z"
     fill="#5294e2"
     style="fill:#898989;paint-order:stroke markers fill"
     id="path665" />
  <rect
     x="9.2599001"
     y="4.7620001"
     width="3.9690001"
     height="0.52899998"
     ry="0.26499999"
     opacity="0.25"
     style="paint-order:stroke markers fill"
     id="rect667" />
  <path
     d="M 15.61022,8.46656 8.46656,15.61022 A 7.14366,7.14366 0 0 0 15.61022,8.46656 Z"
     fill="url(#a)"
     opacity="0.15"
     stroke-width="1.00001"
     style="fill:url(#a);paint-order:stroke markers fill"
     id="path669" />
</svg>
