<?xml version="1.0" encoding="UTF-8" standalone="no"?>
<svg
   width="64"
   height="64"
   version="1.1"
   viewBox="0 0 16.933 16.933"
   id="svg717"
   sodipodi:docname="geany.svg"
   xmlns:inkscape="http://www.inkscape.org/namespaces/inkscape"
   xmlns:sodipodi="http://sodipodi.sourceforge.net/DTD/sodipodi-0.dtd"
   xmlns="http://www.w3.org/2000/svg"
   xmlns:svg="http://www.w3.org/2000/svg">
  <defs
     id="defs721" />
  <sodipodi:namedview
     id="namedview719"
     pagecolor="#ffffff"
     bordercolor="#000000"
     borderopacity="0.25"
     inkscape:showpageshadow="2"
     inkscape:pageopacity="0.0"
     inkscape:pagecheckerboard="0"
     inkscape:deskcolor="#d1d1d1"
     showgrid="false"
     inkscape:zoom="13.5625"
     inkscape:cx="32"
     inkscape:cy="32.036866"
     inkscape:window-width="946"
     inkscape:window-height="1037"
     inkscape:window-x="965"
     inkscape:window-y="34"
     inkscape:window-maximized="1"
     inkscape:current-layer="svg717" />
  <path
     d="m 8.3803,1.3234 a 7.1436,7.1436 0 1 1 0,14.286 7.1436,7.1436 0 0 1 0,-14.286 z"
     fill="#f6d32e"
     id="path711"
     style="fill:#cbcbcb" />
  <path
     d="m 8.467,2.646 a 5.8205,5.8205 0 1 1 0,11.641 5.8205,5.8205 0 0 1 0,-11.641 z"
     fill="#fff"
     opacity="0.15"
     id="path713"
     style="fill:#ffffff" />
  <path
     d="M 8.404,5.396 C 8.164,5.399 7.933,5.504 7.864,5.682 7.844,5.738 7.842,5.755 7.856,5.837 7.886,6.007 7.994,6.22 8.121,6.357 8.208,6.451 8.266,6.49 8.349,6.512 8.418,6.53 8.465,6.524 8.541,6.489 8.711,6.409 8.913,6.112 8.965,5.86 8.998,5.706 8.952,5.6 8.813,5.508 A 0.728,0.728 0 0 0 8.404,5.396 Z M 7.664,5.928 C 7.647,5.918 7.369,5.958 7.17,6 6.706,6.098 6.377,6.235 6.192,6.407 6.092,6.5 6.06,6.559 6.06,6.647 6.06,6.735 6.092,6.794 6.192,6.887 6.489,7.164 7.211,7.363 8.059,7.402 8.478,7.422 8.975,7.39 9.373,7.318 10.138,7.181 10.659,6.883 10.609,6.61 10.561,6.35 10.038,6.087 9.339,5.97 L 9.159,5.939 9.126,6.031 C 8.98,6.429 8.71,6.702 8.444,6.721 8.234,6.736 8.028,6.601 7.851,6.335 A 1.59,1.59 0 0 1 7.681,5.972 C 7.677,5.952 7.669,5.932 7.663,5.928 Z M 10.815,6.616 10.807,6.69 C 10.769,7.042 10.271,7.347 9.485,7.5 8.055,7.778 6.346,7.492 5.939,6.906 L 5.899,6.848 5.889,6.912 C 5.872,7.043 5.879,7.732 5.899,7.969 5.91,8.097 5.917,8.204 5.914,8.207 5.904,8.217 5.658,8.11 5.59,8.065 5.36,7.912 5.254,7.682 5.214,7.25 L 5.199,7.094 4.975,7.09 4.75,7.087 4.76,7.167 c 0.077,0.703 0.328,1.375 0.704,1.886 0.582,0.79 1.51,1.3 2.576,1.418 0.184,0.02 0.562,0.023 0.718,0.006 0.586,-0.065 1.056,-0.28 1.405,-0.643 0.424,-0.44 0.66,-1.018 0.752,-1.841 0.01,-0.097 0.016,-0.31 0.015,-0.61 C 10.928,6.882 10.922,6.836 10.851,6.689 Z m 1.093,0.41 a 0.75,0.75 0 0 0 -0.692,0.312 c -0.064,0.09 -0.136,0.237 -0.136,0.28 0,0.07 0.075,0.142 0.148,0.142 0.068,0 0.098,-0.028 0.159,-0.146 A 0.603,0.603 0 0 1 11.636,7.34 c 0.296,-0.15 0.644,0.044 0.7,0.39 0.014,0.078 0.008,0.156 -0.051,0.715 -0.076,0.722 -0.066,0.686 -0.22,0.778 -0.199,0.12 -0.51,0.182 -1.017,0.201 -0.231,0.01 -0.233,0.01 -0.268,0.045 -0.053,0.053 -0.05,0.117 0.008,0.175 l 0.044,0.044 h 0.199 c 0.547,0 0.982,-0.093 1.235,-0.262 a 0.544,0.544 0 0 0 0.223,-0.27 c 0.017,-0.063 0.144,-1.25 0.144,-1.344 0,-0.1 -0.035,-0.235 -0.089,-0.343 A 0.793,0.793 0 0 0 11.908,7.026 Z M 6.752,7.514 c 0.004,0 0.094,0.176 0.202,0.39 L 7.15,8.296 6.958,8.683 C 6.852,8.895 6.762,9.071 6.758,9.073 A 5.234,5.234 0 0 1 6.552,8.688 L 6.354,8.297 6.549,7.905 C 6.657,7.69 6.749,7.514 6.752,7.514 Z m 3.426,0.007 0.2,0.398 0.198,0.397 -0.194,0.389 a 8.469,8.469 0 0 1 -0.2,0.388 c -0.004,0 -0.096,-0.176 -0.203,-0.392 L 9.783,8.31 9.981,7.915 Z m -1.711,0.42 c 0.012,0 0.588,0.936 0.585,0.949 C 9.05,8.897 8.919,9.108 8.762,9.36 A 8.99,8.99 0 0 1 8.467,9.818 C 8.457,9.818 7.89,8.918 7.882,8.89 7.878,8.875 8.454,7.94 8.467,7.941 Z m 1.737,2.137 -0.07,0.059 C 9.752,10.455 9.262,10.638 8.667,10.685 A 4.085,4.085 0 0 1 7.305,10.53 3.677,3.677 0 0 1 6.6,10.256 L 6.448,10.179 6.362,10.219 C 6.169,10.306 5.99,10.451 5.936,10.565 a 0.33,0.33 0 0 0 -0.008,0.253 c 0.104,0.235 0.53,0.455 1.128,0.583 0.306,0.065 0.507,0.092 0.964,0.129 0.029,0.002 0.215,0.006 0.414,0.007 0.39,0.002 0.603,-0.01 0.939,-0.05 1.411,-0.175 2.058,-0.714 1.39,-1.158 a 1.84,1.84 0 0 0 -0.432,-0.206 l -0.127,-0.044 z"
     fill="#d11616"
     id="path715"
     style="fill:#4e4e4e" />
</svg>
