<?xml version="1.0" encoding="UTF-8" standalone="no"?>
<svg
   width="64"
   height="64"
   version="1.1"
   viewBox="0 0 16.933 16.933"
   id="svg950"
   sodipodi:docname="gimp.svg"
   xmlns:inkscape="http://www.inkscape.org/namespaces/inkscape"
   xmlns:sodipodi="http://sodipodi.sourceforge.net/DTD/sodipodi-0.dtd"
   xmlns="http://www.w3.org/2000/svg"
   xmlns:svg="http://www.w3.org/2000/svg">
  <sodipodi:namedview
     id="namedview952"
     pagecolor="#ffffff"
     bordercolor="#000000"
     borderopacity="0.25"
     inkscape:showpageshadow="2"
     inkscape:pageopacity="0.0"
     inkscape:pagecheckerboard="0"
     inkscape:deskcolor="#d1d1d1"
     showgrid="false"
     inkscape:zoom="13.5625"
     inkscape:cx="32"
     inkscape:cy="32.110599"
     inkscape:window-width="946"
     inkscape:window-height="1037"
     inkscape:window-x="965"
     inkscape:window-y="34"
     inkscape:window-maximized="1"
     inkscape:current-layer="svg950" />
  <defs
     id="defs926">
    <linearGradient
       id="d"
       x1="34.601002"
       x2="34.601002"
       y1="50.400002"
       y2="45.085999"
       gradientUnits="userSpaceOnUse">
      <stop
         offset="0"
         id="stop921" />
      <stop
         stop-opacity="0"
         offset="1"
         id="stop923" />
    </linearGradient>
  </defs>
  <circle
     cx="8.4665003"
     cy="8.4665003"
     r="7.1436"
     fill="#f9f9f9"
     style="fill:#f9f9f9;paint-order:stroke fill markers"
     id="circle928" />
  <g
     transform="matrix(0.69229,0,0,0.69229,2.5955,2.9766)"
     id="g948">
    <path
       d="m 2.57,2.117 c 0,0 -0.982,0 -0.982,0.977 0,0 -0.053,4.779 0.982,6.838 0.62,1.236 3.927,3.908 3.927,3.908 h 3.928 c 0,0 3.306,-2.672 3.927,-3.908 1.035,-2.06 0.982,-6.838 0.982,-6.838 0.139,-0.968 -0.982,-0.977 -0.982,-0.977 0,1.954 -1.964,1.954 -1.964,1.954 H 4.533 c 0,0 -1.963,0 -1.963,-1.954 z"
       fill="#5c4e3c"
       id="path930"
       style="fill:#505050" />
    <g
       transform="matrix(0.34395,0,0,0.34223,-43.43,-80.23)"
       id="g936">
      <circle
         cx="159.87"
         cy="259.32999"
         r="4"
         fill="#fff"
         id="circle932"
         style="fill:#ffffff" />
      <path
         d="m 159.74,257.33 a 3,3 0 0 0 -2.874,2.995 3,3 0 0 0 3,3 3,3 0 0 0 3,-3 3,3 0 0 0 -2.85,-2.992 1.5,1.5 0 0 1 1.35,1.492 1.5,1.5 0 0 1 -1.5,1.5 1.5,1.5 0 0 1 -1.5,-1.5 1.5,1.5 0 0 1 1.374,-1.495 z"
         opacity="0.8"
         id="path934" />
    </g>
    <g
       transform="matrix(0.34395,0,0,0.34223,-49.622,-80.23)"
       id="g942">
      <circle
         cx="159.87"
         cy="259.32999"
         r="4"
         fill="#fff"
         id="circle938"
         style="fill:#ffffff" />
      <path
         d="m 159.74,257.33 a 3,3 0 0 0 -2.874,2.995 3,3 0 0 0 3,3 3,3 0 0 0 3,-3 3,3 0 0 0 -2.85,-2.992 1.5,1.5 0 0 1 1.35,1.492 1.5,1.5 0 0 1 -1.5,1.5 1.5,1.5 0 0 1 -1.5,-1.5 1.5,1.5 0 0 1 1.374,-1.495 z"
         opacity="0.8"
         id="path940" />
    </g>
    <path
       d="m 6.497,13.84 c 0,0 0.575,0.977 1.964,0.977 1.388,0 1.964,-0.977 1.964,-0.977 0,0 -0.491,-0.977 -1.964,-0.977 -1.473,0 -1.964,0.977 -1.964,0.977 z"
       fill="#252525"
       fill-rule="evenodd"
       id="path944"
       style="fill:#252525" />
    <path
       transform="matrix(0.34395,0,0,0.34223,-2.546,-2.432)"
       d="m 34.537,45.086 a 5.5,5 0 0 1 0.072,0.791 5.5,5 0 0 1 -3.117,4.502 c 0.167,0.01 0.332,0.021 0.508,0.021 4.037,0 5.709,-2.855 5.709,-2.855 0,0 -0.846,-1.677 -3.172,-2.46 z"
       fill="url(#d)"
       fill-rule="evenodd"
       opacity="0.25"
       id="path946"
       style="fill:url(#d)" />
  </g>
</svg>
