<?xml version="1.0" encoding="UTF-8" standalone="no"?>
<svg
   width="64"
   height="64"
   version="1.1"
   viewBox="0 0 64 64"
   id="svg1028"
   sodipodi:docname="telegram.svg"
   xmlns:inkscape="http://www.inkscape.org/namespaces/inkscape"
   xmlns:sodipodi="http://sodipodi.sourceforge.net/DTD/sodipodi-0.dtd"
   xmlns="http://www.w3.org/2000/svg"
   xmlns:svg="http://www.w3.org/2000/svg">
  <sodipodi:namedview
     id="namedview1030"
     pagecolor="#ffffff"
     bordercolor="#000000"
     borderopacity="0.25"
     inkscape:showpageshadow="2"
     inkscape:pageopacity="0.0"
     inkscape:pagecheckerboard="0"
     inkscape:deskcolor="#d1d1d1"
     showgrid="false"
     inkscape:zoom="13.5625"
     inkscape:cx="32.036866"
     inkscape:cy="32.110599"
     inkscape:window-width="951"
     inkscape:window-height="1037"
     inkscape:window-x="5"
     inkscape:window-y="34"
     inkscape:window-maximized="1"
     inkscape:current-layer="svg1028" />
  <defs
     id="defs1010">
    <linearGradient
       id="a"
       x1="135"
       x2="160"
       y1="120"
       y2="160"
       gradientTransform="matrix(0.05623,0,0,0.05623,0.071601,-0.05278)"
       gradientUnits="userSpaceOnUse">
      <stop
         stop-color="#eff7fc"
         offset="0"
         id="stop1005" />
      <stop
         stop-color="#fff"
         offset="1"
         id="stop1007" />
    </linearGradient>
  </defs>
  <g
     transform="matrix(1.1739,0,0,1.1739,-5.5652,-5.5652)"
     stroke-width="0.85185"
     id="g1026">
    <g
       transform="translate(8,8)"
       fill="#3db0e3"
       id="g1014"
       style="fill:#939393">
      <path
         d="m 24,1.0001 c 12.703,0 23,10.297 23,23 0,12.703 -10.297,23 -23,23 -12.703,0 -23,-10.297 -23,-23 0,-12.703 10.297,-23 23,-23 z"
         stroke-width="0.85186"
         id="path1012"
         style="fill:#939393" />
    </g>
    <g
       transform="matrix(3.5433,0,0,3.5433,27,6.8895)"
       id="g1024">
      <g
         transform="translate(-5.0801)"
         stroke-width="0.85185"
         id="g1022">
        <path
           d="M 5.582,9.787 C 5.363,9.787 5.401,9.704 5.325,9.496 L 4.682,7.38 8.663,4.893 9.128,5.015 8.742,6.073 Z"
           fill="#c8daea"
           id="path1016"
           style="fill:#d6d6d6" />
        <path
           d="M 5.582,9.787 C 5.751,9.787 5.825,9.71 5.919,9.618 6.064,9.476 7.943,7.65 7.943,7.65 L 6.792,7.371 5.724,8.046 5.582,9.73 Z"
           fill="#a7c2d1"
           id="path1018"
           style="fill:#bcbcbc" />
        <path
           d="m 5.697,8.07 2.719,2.01 c 0.31,0.171 0.534,0.083 0.612,-0.288 L 10.135,4.576 C 10.248,4.122 9.962,3.916 9.665,4.05 l -6.5,2.507 C 2.721,6.735 2.724,6.982 3.084,7.093 L 4.752,7.614 8.613,5.178 C 8.795,5.067 8.963,5.127 8.825,5.249 Z"
           fill="url(#a)"
           id="path1020"
           style="fill:url(#a)" />
      </g>
    </g>
  </g>
</svg>
